<svg viewBox="0 0 516 130" fill="none" xmlns="http://www.w3.org/2000/svg">
<path d="M126.71 0.00999343C103.49 0.00999343 81.08 12.97 65.15 49.87V49.78C59.3 49.78 53.99 49.69 46.52 49.69C40.67 49.69 33.38 49.78 27.26 49.78L33.56 32.41C38.06 20.17 39.95 19.36 47.15 19.36C47.78 19.36 47.96 18.73 47.33 18.73C41.39 18.73 40.13 19 37.97 19H30.59C28.97 19 28.07 18.73 23.75 18.73C23.3 18.73 23.48 19.36 23.93 19.36C29.06 19.36 32.48 20.17 28.52 31.06L14.93 68.59C10.43 80.83 8.45 81.64 1.16 81.64C0.62 81.64 0.35 82.27 0.98 82.27C7.01 82.27 8.27 82 10.52 82H17.9C19.52 82 20.42 82.27 24.74 82.27C25.19 82.27 25.01 81.64 24.56 81.64C19.43 81.64 16.01 80.83 19.97 69.94L26.99 50.5C30.86 50.5 39.95 50.68 46.16 50.68C53.54 50.68 58.85 50.5 64.88 50.5C63.53 53.56 62.27 56.89 61.01 60.31L58.13 68.68C53.72 80.83 52.01 81.64 45.35 81.64C44.72 81.64 44.54 82.27 45.17 82.27C50.66 82.27 51.83 82 53.9 82H61.46C63.53 82 64.7 82.27 70.19 82.27C70.82 82.27 70.55 81.64 70.01 81.64C63.35 81.64 59.21 80.83 63.44 68.59L66.32 60.58C81.62 16.84 102.68 0.819994 126.71 0.819994C154.52 0.999997 166.4 19.9 166.4 44.47C166.4 80.29 139.49 118 107 118C58.67 118 79.55 36.19 120.59 36.19C141.47 36.19 139.13 62.11 131.03 70.3C130.49 70.84 130.76 71.38 131.48 70.84C140.21 62.74 142.28 35.38 120.68 35.38C78.29 35.38 57.5 118.72 107 118.72C139.67 118.72 167.12 80.65 167.12 44.47C167.12 19.36 154.88 0.00999343 126.71 0.00999343ZM99.1025 82.9C113.772 82.9 130.242 67.24 130.242 50.41C130.242 43.39 126.283 36.01 117.373 36.01C102.612 36.01 86.1425 51.49 86.1425 68.68C86.1425 75.61 89.6525 82.9 99.1025 82.9ZM104.952 81.01C95.4125 81.01 91.8125 76.42 91.8125 69.04C91.8125 51.13 106.573 37.81 111.523 37.81C120.972 37.81 124.663 42.22 124.573 49.78C124.302 67.33 109.812 81.01 104.952 81.01ZM198.267 35.92C196.107 35.92 193.407 38.53 193.407 39.34C193.407 39.52 193.407 39.7 193.857 39.97C196.737 41.59 199.347 44.92 199.347 50.23C199.347 65.08 184.047 80.83 176.037 80.83C172.257 80.83 170.187 76.78 170.187 72.55C170.187 63.46 178.197 41.23 179.997 36.37C180.267 35.92 179.907 35.92 179.547 36.01C177.477 36.46 175.857 36.91 174.507 37.63C174.147 37.9 173.877 38.17 173.787 38.44C172.077 43.12 163.347 66.16 164.517 73.36C161.007 78.13 157.677 80.92 153.717 80.92C149.937 80.92 147.417 76.69 147.417 72.64C147.417 65.71 150.027 56.35 154.617 43.66C156.417 38.35 151.917 34.39 149.217 36.55C147.057 38.17 145.167 40.69 141.747 45.01C141.387 45.46 141.837 45.82 142.197 45.55C145.347 41.86 146.607 40.51 148.047 39.52C149.217 39.52 149.847 41.23 149.307 42.76C145.527 53.74 141.567 64.99 141.567 72.46C141.567 78.76 146.697 82.99 149.847 82.99C156.417 82.99 160.017 80.29 164.607 74.71C165.417 79.57 168.837 82.99 171.987 82.99C187.197 82.99 203.127 60.04 203.127 45.1C203.127 40.33 200.967 35.92 198.267 35.92ZM271.734 60.22C269.394 64.36 253.194 78.94 244.014 80.74C242.574 80.74 242.124 78.67 242.754 76.69C247.074 64 253.464 47.62 256.794 37.81H265.794L266.514 36.91H257.244L262.554 22.15C262.644 21.88 262.374 21.79 262.104 22.15C258.054 30.34 252.384 35.02 245.544 37.27L245.274 37.81H251.304C239.964 68.68 238.344 73.45 237.624 75.79C236.274 79.93 239.694 82.81 242.484 82.54C252.744 81.01 269.574 64.81 272.454 60.76C272.724 60.31 272.274 59.86 271.734 60.22ZM283.307 82.9C297.977 82.9 314.447 67.24 314.447 50.41C314.447 43.39 310.487 36.01 301.577 36.01C286.817 36.01 270.347 51.49 270.347 68.68C270.347 75.61 273.857 82.9 283.307 82.9ZM289.157 81.01C279.617 81.01 276.017 76.42 276.017 69.04C276.017 51.13 290.777 37.81 295.727 37.81C305.177 37.81 308.867 42.22 308.777 49.78C308.507 67.33 294.017 81.01 289.157 81.01ZM366.119 27.28C368.549 27.28 370.799 25.48 371.519 23.41C372.419 21.16 371.159 19.63 368.999 19.63C366.659 19.63 364.409 21.34 363.689 23.41C362.879 25.66 364.049 27.28 366.119 27.28ZM358.199 36.55C356.129 37.99 353.969 40.6 350.549 45.01C350.189 45.46 350.639 45.82 350.999 45.55C354.239 41.86 355.589 40.51 357.209 39.52C358.379 39.52 359.189 41.23 358.649 42.76C353.969 55.81 341.639 89.56 336.959 102.7C332.819 113.95 325.529 125.56 321.569 126.1C316.709 126.46 305.909 124.84 303.479 121.96C303.209 121.51 306.179 116.38 306.539 116.02C306.719 115.75 306.179 115.39 305.999 115.66C303.119 119.89 299.429 123.94 298.619 125.83C301.319 127.54 308.249 129.34 314.099 129.34C324.899 129.34 337.589 115.03 342.719 101.35C350.099 81.46 360.719 52.21 363.959 43.48C365.849 38.35 360.899 34.39 358.199 36.55ZM385.865 82.9C400.535 82.9 417.005 67.24 417.005 50.41C417.005 43.39 413.045 36.01 404.135 36.01C389.375 36.01 372.905 51.49 372.905 68.68C372.905 75.61 376.415 82.9 385.865 82.9ZM391.715 81.01C382.175 81.01 378.575 76.42 378.575 69.04C378.575 51.13 393.335 37.81 398.285 37.81C407.735 37.81 411.425 42.22 411.335 49.78C411.065 67.33 396.575 81.01 391.715 81.01ZM444.53 27.28C446.96 27.28 449.21 25.48 449.93 23.41C450.83 21.16 449.57 19.63 447.41 19.63C445.07 19.63 442.82 21.34 442.1 23.41C441.29 25.66 442.46 27.28 444.53 27.28ZM455.87 59.41C453.53 63.55 439.49 78.76 431.39 80.74C429.95 80.74 429.5 78.67 430.13 76.69C433.82 66.25 437.6 55.9 441.92 43.48C443.72 38.44 438.86 34.39 436.16 36.55C434.09 37.99 432.02 40.69 428.51 45.01C428.15 45.46 428.6 45.82 428.96 45.55C432.29 41.86 433.55 40.51 435.17 39.52C436.34 39.52 437.15 41.23 436.61 42.76C434.99 47.17 427.25 68.77 425 75.79C423.65 79.93 427.16 82.9 429.95 82.54C439.04 81.01 453.71 64.09 456.59 59.95C456.95 59.5 456.41 59.05 455.87 59.41ZM488.118 82.54C497.298 81.01 511.878 64.09 514.758 59.95C515.118 59.5 514.578 59.05 514.038 59.41C511.698 63.55 497.658 78.76 489.558 80.74C488.118 80.74 487.668 78.67 488.298 76.69C491.808 65.53 493.878 59.86 499.008 47.8C501.978 41.05 497.478 35.11 493.608 36.19C486.498 38.17 473.628 48.52 464.808 59.95H464.448L470.568 43.48C472.368 38.53 467.508 34.39 464.808 36.55C462.828 38.08 460.578 40.6 457.158 45.01C456.798 45.46 457.248 45.82 457.608 45.55C460.938 41.86 462.198 40.51 463.818 39.52C464.988 39.52 465.798 41.23 465.258 42.76C461.118 55 456.798 66.34 450.408 82.36C450.138 82.9 450.408 82.9 450.858 82.81C452.928 82.36 454.908 81.91 456.258 81.1C456.528 80.92 456.888 80.56 456.978 80.29C458.508 75.43 460.038 71.74 461.658 67.24C466.068 55.45 485.958 40.42 490.548 39.43C492.168 39.34 495.588 42.67 493.428 48.07C490.368 55.36 486.228 66.25 483.168 75.79C481.818 79.93 485.328 82.9 488.118 82.54Z" fill="white"/>
</svg>
