<svg viewBox="0 0 406 187" fill="none" xmlns="http://www.w3.org/2000/svg">
<path d="M119.48 50.04C122.72 50.04 125.72 47.64 126.68 44.88C127.88 41.88 126.2 39.84 123.32 39.84C120.2 39.84 117.2 42.12 116.24 44.88C115.16 47.88 116.72 50.04 119.48 50.04ZM134.6 92.88C131.48 98.4 112.76 118.68 101.96 121.32C100.04 121.32 99.44 118.56 100.28 115.92C105.2 102 110.24 88.2 116 71.64C118.4 64.92 111.92 59.52 108.32 62.4C105.56 64.32 102.8 67.92 98.12 73.68C97.64 74.28 98.24 74.76 98.72 74.4C103.16 69.48 104.84 67.68 107 66.36C108.56 66.36 109.64 68.64 108.92 70.68C106.76 76.56 96.44 105.36 93.44 114.72C91.64 120.24 96.32 124.2 100.04 123.72C112.16 121.68 131.72 99.12 135.56 93.6C136.04 93 135.32 92.4 134.6 92.88ZM209.278 5.52C206.398 2.27999 196.438 0.959991 191.878 0.959991C177.478 0.959991 161.518 19.56 154.078 37.92C151.318 45.6 149.398 49.92 144.958 62.88H139.798L138.598 64.08H144.478L135.118 91.08C115.438 147.72 85.1984 170.76 54.3584 170.76C17.2784 170.52 1.55843 145.32 1.55843 112.44C1.55843 64.8 37.3184 14.52 80.6384 14.52C145.198 14.52 117.238 123.6 62.5184 123.6C34.6784 123.6 37.7984 89.04 48.5984 78.12L47.9984 77.4C36.3584 88.2 33.5984 124.68 62.3984 124.68C118.918 124.68 146.638 13.56 80.6384 13.56C37.0784 13.56 0.478434 64.32 0.478434 112.44C0.478434 146.04 16.7984 171.84 54.3584 171.84C86.8784 171.84 121.918 150.12 142.318 91.44C145.438 82.32 148.678 73.2 151.918 64.08H166.918L168.118 62.88H152.278L161.398 36.48C167.278 21.48 176.638 6 181.918 5.15999C188.398 4.67999 199.918 6.95999 203.158 10.68C203.518 11.28 199.078 18.12 198.718 18.72C198.478 19.08 199.198 19.44 199.438 19.08C203.278 13.56 210.598 7.08 209.278 5.52ZM254.934 61.68C252.294 62.4 249.654 63 247.854 63.96C247.374 64.2 247.014 64.68 246.894 65.04C244.734 71.64 243.174 76.44 241.014 82.44C236.094 95.52 211.494 116.28 202.134 118.32C199.974 118.56 195.414 115.32 198.294 108.12C202.854 96 207.414 84.12 212.094 71.64C214.494 64.92 208.014 59.52 204.414 62.4C201.654 64.32 198.774 67.8 194.214 73.68C193.734 74.28 194.334 74.76 194.814 74.4C199.254 69.48 200.934 67.68 203.094 66.36C204.654 66.36 205.734 68.64 205.014 70.68C203.214 75.6 193.854 101.4 190.854 108.36C186.894 117.48 192.894 125.28 198.054 123.84C207.534 121.32 224.694 107.52 236.454 92.28H236.934L215.814 150.6C210.294 165.6 200.574 181.08 195.414 181.8C188.934 182.28 174.414 180.12 171.174 176.28C170.814 175.68 174.894 168.84 175.254 168.36C175.614 168 174.894 167.52 174.534 167.88C170.694 173.52 165.774 178.92 164.814 181.44C168.294 183.72 177.534 186.12 185.454 186.12C199.854 186.12 216.654 167.16 223.494 148.8C228.894 133.56 249.774 77.16 255.654 62.4C256.014 61.68 255.654 61.68 254.934 61.68ZM276.217 124.2C295.777 124.2 317.737 103.32 317.737 80.88C317.737 71.52 312.457 61.68 300.577 61.68C280.897 61.68 258.937 82.32 258.937 105.24C258.937 114.48 263.617 124.2 276.217 124.2ZM284.017 121.68C271.297 121.68 266.497 115.56 266.497 105.72C266.497 81.84 286.177 64.08 292.777 64.08C305.377 64.08 310.297 69.96 310.177 80.04C309.817 103.44 290.497 121.68 284.017 121.68ZM404.236 92.88C400.996 98.4 382.276 118.68 371.476 121.32C369.556 121.32 369.076 118.56 369.916 115.92C371.236 111.24 382.276 81 389.716 62.4C390.076 61.68 389.716 61.68 388.996 61.68C386.356 62.4 383.716 63 381.916 63.96C381.436 64.2 381.076 64.68 380.956 65.04C378.796 71.64 377.236 76.44 375.076 82.44C370.156 95.52 346.636 117.36 337.276 119.52C335.116 119.64 330.556 115.32 332.356 108.12C336.916 96 341.476 84.12 346.156 71.64C348.556 64.92 342.076 59.52 338.476 62.4C335.716 64.32 332.836 67.8 328.276 73.68C327.796 74.28 328.396 74.76 328.876 74.4C333.316 69.48 334.996 67.68 337.156 66.36C338.716 66.36 339.796 68.64 339.076 70.68C337.276 75.6 327.076 101.16 324.916 108.36C322.036 117.48 328.036 125.28 333.196 123.84C342.676 121.2 358.756 107.52 370.516 92.28H370.996C367.036 102.96 364.876 109.08 362.956 114.72C361.276 120.24 365.836 124.2 369.556 123.72C381.796 121.68 401.356 99.12 405.196 93.6C405.556 93 404.836 92.4 404.236 92.88Z" fill="white"/>
</svg>
