<svg viewBox="0 0 64 64" fill="none" xmlns="http://www.w3.org/2000/svg">
<path d="M32 0H48C56.8366 0 64 7.16344 64 16C64 24.8366 56.8366 32 48 32H32V0Z" fill="white"/>
<path d="M32 32L16 32C7.16344 32 6.26248e-07 24.8366 1.39876e-06 16C2.17128e-06 7.16344 7.16345 -2.17128e-06 16 -1.39876e-06C24.8366 -6.26248e-07 32 7.16344 32 16L32 32Z" fill="white"/>
<path d="M32 32H64V48C64 56.8366 56.8366 64 48 64C39.1634 64 32 56.8366 32 48V32Z" fill="white"/>
<path d="M16 32C24.8366 32 32 39.1634 32 48C32 56.8366 24.8366 64 16 64C7.16344 64 -1.08564e-06 56.8366 -6.99382e-07 48C-3.13124e-07 39.1634 7.16344 32 16 32Z" fill="white"/>
</svg>
