<svg viewBox="0 0 24 24" fill="none" xmlns="http://www.w3.org/2000/svg">
    <path d="M10.2222 4V5.77778H5.77778V18.2222H18.2222V13.7778H20V19.1111C20 19.3469 19.9064 19.573 19.7397 19.7397C19.573 19.9064 19.3469 20 19.1111 20H4.88889C4.65314 20 4.42705 19.9064 4.26035 19.7397C4.09365 19.573 4 19.3469 4 19.1111V4.88889C4 4.65314 4.09365 4.42705 4.26035 4.26035C4.42705 4.09365 4.65314 4 4.88889 4H10.2222ZM16.9653 5.77778H12.8889V4H20V11.1111H18.2222V7.03467L12 13.2569L10.7431 12L16.9653 5.77778Z" fill="black"/>
</svg>
