<svg viewBox="0 0 20 20" fill="none" xmlns="http://www.w3.org/2000/svg">
    <path fill-rule="evenodd" clip-rule="evenodd" d="M10 20C15.5228 20 20 15.5228 20 10C20 4.47715 15.5228 0 10 0C4.47715 0 0 4.47715 0 10C0 15.5228 4.47715 20 10 20ZM6.73913 14.8132C7.56522 15.6044 8.68478 16 10.0978 16C11.5 16 12.5815 15.6154 13.3424 14.8462C14.1141 14.0659 14.5 13 14.5 11.6484V11.4176H12.3804V11.7143C12.3804 12.3846 12.1902 12.9451 11.8098 13.3956C11.4402 13.8352 10.8696 14.0549 10.0978 14.0549C9.33696 14.0549 8.73913 13.8187 8.30435 13.3462C7.86957 12.8626 7.65217 12.2198 7.65217 11.4176V8.58242C7.65217 7.76923 7.86957 7.12637 8.30435 6.65385C8.73913 6.18132 9.33696 5.94506 10.0978 5.94506C10.8696 5.94506 11.4402 6.16483 11.8098 6.60439C12.1902 7.04396 12.3804 7.6044 12.3804 8.28571V8.45055H14.5V8.35165C14.5 7 14.1141 5.93956 13.3424 5.17033C12.5815 4.39011 11.5 4 10.0978 4C8.68478 4 7.56522 4.4011 6.73913 5.2033C5.91304 5.99451 5.5 7.13187 5.5 8.61539V11.3846C5.5 12.8681 5.91304 14.011 6.73913 14.8132Z" fill="white"/>
</svg>
