<svg viewBox="0 0 144 22" fill="none" xmlns="http://www.w3.org/2000/svg">
    <path fill-rule="evenodd" clip-rule="evenodd" d="M0 0H10.3704L0 10.4762V0ZM17.6296 0H28V10.4762L17.6296 0ZM19.1852 5.23809C19.1852 8.13101 16.8637 10.4762 14 10.4762C11.1363 10.4762 8.81484 8.13101 8.81484 5.23809C8.81484 2.34518 11.1363 0 14 0C16.8637 0 19.1852 2.34518 19.1852 5.23809ZM10.3704 11.5235H1.1989e-05V11.6293C1.1989e-05 17.3567 4.64299 21.9997 10.3704 21.9997V11.5235ZM17.6296 22V11.5238H28V11.6296C28 17.357 23.357 22 17.6296 22ZM16.0741 11.5234H11.9259V21.9996H16.0741V11.5234Z" fill="white"/>
    <path d="M46.0929 22C44.5143 22 43.1155 21.7179 41.8966 21.1538C40.6776 20.5897 39.7185 19.7637 39.0191 18.6758C38.3397 17.5678 38 16.228 38 14.6566V13.9011H41.2072V14.6566C41.2072 16.1474 41.6468 17.2656 42.526 18.011C43.4252 18.7564 44.6142 19.1291 46.0929 19.1291C47.5915 19.1291 48.7205 18.8169 49.4799 18.1923C50.2392 17.5476 50.6189 16.7216 50.6189 15.7143C50.6189 15.0494 50.439 14.5055 50.0793 14.0824C49.7197 13.6593 49.2101 13.3269 48.5507 13.0852C47.8913 12.8233 47.102 12.5815 46.1828 12.3599L45.0738 12.0879C43.7349 11.7656 42.566 11.3727 41.5669 10.9093C40.5877 10.4258 39.8284 9.79121 39.2889 9.0055C38.7493 8.21978 38.4796 7.21245 38.4796 5.98352C38.4796 4.73443 38.7793 3.66667 39.3788 2.78022C39.9982 1.89377 40.8475 1.20879 41.9265 0.725274C43.0056 0.241758 44.2745 0 45.7332 0C47.1919 0 48.4907 0.251831 49.6297 0.755495C50.7887 1.25916 51.6979 2.00458 52.3573 2.99176C53.0168 3.97894 53.3465 5.21795 53.3465 6.70879V7.7967H50.1393V6.70879C50.1393 5.8022 49.9495 5.06685 49.5698 4.50275C49.2101 3.93864 48.7006 3.52564 48.0411 3.26374C47.3817 3.00183 46.6124 2.87088 45.7332 2.87088C44.4543 2.87088 43.4552 3.14286 42.7358 3.68681C42.0364 4.21062 41.6867 4.94597 41.6867 5.89286C41.6867 6.53755 41.8366 7.07143 42.1364 7.4945C42.4561 7.89744 42.9157 8.22985 43.5151 8.49176C44.1146 8.75366 44.8639 8.98535 45.7632 9.18681L46.8722 9.45879C48.231 9.76099 49.4299 10.1538 50.469 10.6374C51.5081 11.1007 52.3274 11.7353 52.9268 12.5412C53.5263 13.3471 53.826 14.3846 53.826 15.6538C53.826 16.9231 53.5063 18.0311 52.8669 18.978C52.2474 19.9249 51.3582 20.6703 50.1992 21.2143C49.0403 21.7381 47.6715 22 46.0929 22Z" fill="white"/>
    <path d="M56.5541 21.5769V0.423076H69.7724V3.38461H59.7912V9.45879H68.9332V12.4203H59.7912V18.6154H69.9223V21.5769H56.5541Z" fill="white"/>
    <path d="M72.5177 21.5769V0.423076H85.7361V3.38461H75.7549V9.45879H84.8968V12.4203H75.7549V18.6154H85.8859V21.5769H72.5177Z" fill="white"/>
    <path d="M88.4815 21.5769V18.6758H91.299V3.32418H88.4815V0.423076H96.8741C99.6716 0.423076 101.81 1.13828 103.288 2.56868C104.787 3.99908 105.536 6.15476 105.536 9.03571V12.9945C105.536 15.8755 104.787 18.0311 103.288 19.4615C101.81 20.8718 99.6716 21.5769 96.8741 21.5769H88.4815ZM94.5661 18.6154H96.904C98.7224 18.6154 100.071 18.152 100.95 17.2253C101.83 16.2985 102.269 14.9185 102.269 13.0852V8.91483C102.269 7.06135 101.83 5.68132 100.95 4.77472C100.071 3.86813 98.7224 3.41483 96.904 3.41483H94.5661V18.6154Z" fill="white"/>
    <path d="M107.402 21.5769L113.396 0.423076H119.091L125.056 21.5769H121.729L120.35 16.5907H112.137L110.759 21.5769H107.402ZM112.947 13.5687H119.541L116.484 2.4478H116.004L112.947 13.5687Z" fill="white"/>
    <path d="M135.547 22C132.97 22 130.922 21.2747 129.403 19.8242C127.884 18.3535 127.125 16.2381 127.125 13.478V8.52198C127.125 5.7619 127.884 3.65659 129.403 2.20604C130.922 0.735348 132.97 0 135.547 0C138.125 0 140.173 0.735348 141.692 2.20604C143.231 3.65659 144 5.7619 144 8.52198V13.478C144 16.2381 143.231 18.3535 141.692 19.8242C140.173 21.2747 138.125 22 135.547 22ZM135.547 19.0687C137.206 19.0687 138.485 18.5852 139.384 17.6181C140.283 16.631 140.733 15.2912 140.733 13.5989V8.4011C140.733 6.70879 140.283 5.37912 139.384 4.41209C138.485 3.42491 137.206 2.93132 135.547 2.93132C133.929 2.93132 132.66 3.42491 131.741 4.41209C130.822 5.37912 130.362 6.70879 130.362 8.4011V13.5989C130.362 15.2912 130.822 16.631 131.741 17.6181C132.66 18.5852 133.929 19.0687 135.547 19.0687Z" fill="white"/>
</svg>
