<svg viewBox="0 0 57 24" fill="none" xmlns="http://www.w3.org/2000/svg">
    <path fill-rule="evenodd" clip-rule="evenodd" d="M-1.04907e-06 24L0 -4.37113e-08L1 0L0.999999 24L-1.04907e-06 24Z" fill="white"/>
    <path fill-rule="evenodd" clip-rule="evenodd" d="M3 24L3 -4.37113e-08L4 0L4 24L3 24Z" fill="white"/>
    <path fill-rule="evenodd" clip-rule="evenodd" d="M6 24L6 -4.37113e-08L7 0L7 24L6 24Z" fill="white"/>
    <path fill-rule="evenodd" clip-rule="evenodd" d="M9 24L9 -8.74226e-08L11 0L11 24L9 24Z" fill="white"/>
    <path fill-rule="evenodd" clip-rule="evenodd" d="M13 24L13 -4.37113e-08L14 0L14 24L13 24Z" fill="white"/>
    <path fill-rule="evenodd" clip-rule="evenodd" d="M16 24L16 -4.37113e-08L17 0L17 24L16 24Z" fill="white"/>
    <path fill-rule="evenodd" clip-rule="evenodd" d="M19 24L19 -2.18557e-07L24 0L24 24L19 24Z" fill="white"/>
    <path fill-rule="evenodd" clip-rule="evenodd" d="M26 24L26 -4.37113e-08L27 0L27 24L26 24Z" fill="white"/>
    <path fill-rule="evenodd" clip-rule="evenodd" d="M29 24L29 -4.37113e-08L30 0L30 24L29 24Z" fill="white"/>
    <path fill-rule="evenodd" clip-rule="evenodd" d="M32 24L32 -8.74226e-08L34 0L34 24L32 24Z" fill="white"/>
    <path fill-rule="evenodd" clip-rule="evenodd" d="M36 24L36 -1.31134e-07L39 0L39 24L36 24Z" fill="white"/>
    <path fill-rule="evenodd" clip-rule="evenodd" d="M41 24L41 -4.37113e-08L42 0L42 24L41 24Z" fill="white"/>
    <path fill-rule="evenodd" clip-rule="evenodd" d="M44 24L44 -4.37113e-08L45 0L45 24L44 24Z" fill="white"/>
    <path fill-rule="evenodd" clip-rule="evenodd" d="M47 24L47 -4.37113e-08L48 0L48 24L47 24Z" fill="white"/>
    <path fill-rule="evenodd" clip-rule="evenodd" d="M50 24L50 -4.37113e-08L51 0L51 24L50 24Z" fill="white"/>
    <path fill-rule="evenodd" clip-rule="evenodd" d="M53 24L53 -4.37113e-08L54 0L54 24L53 24Z" fill="white"/>
    <path fill-rule="evenodd" clip-rule="evenodd" d="M56 24L56 -4.37113e-08L57 0L57 24L56 24Z" fill="white"/>
</svg>
