<svg viewBox="0 0 64 64" fill="none" xmlns="http://www.w3.org/2000/svg">
<path d="M48 64C39.1634 64 32 56.8366 32 48C32 39.1634 39.1634 32 48 32L64 32L64 48C64 56.8366 56.8366 64 48 64Z" fill="white"/>
<path d="M16 -6.99382e-07C24.8366 -3.13124e-07 32 7.16344 32 16C32 24.8366 24.8366 32 16 32C7.16344 32 -1.08564e-06 24.8366 -6.99382e-07 16C-3.13124e-07 7.16344 7.16344 -1.08564e-06 16 -6.99382e-07Z" fill="white"/>
<path d="M32 16C32 7.16344 39.1634 0 48 0C56.8366 0 64 7.16344 64 16C64 24.8366 56.8366 32 48 32H32V16Z" fill="white"/>
<path d="M16 32C24.8366 32 32 39.1634 32 48C32 56.8366 24.8366 64 16 64L-1.39876e-06 64L-6.99382e-07 48C-3.13124e-07 39.1634 7.16344 32 16 32Z" fill="white"/>
</svg>
