<svg viewBox="0 0 20 20" fill="none" xmlns="http://www.w3.org/2000/svg">
    <path fill-rule="evenodd" clip-rule="evenodd" d="M14 5C14 7.20914 12.2091 9 10 9C7.79086 9 6 7.20914 6 5C6 2.79086 7.79086 1 10 1C12.2091 1 14 2.79086 14 5ZM12 5C12 6.10457 11.1046 7 10 7C8.8954 7 8 6.10457 8 5C8 3.89543 8.8954 3 10 3C11.1046 3 12 3.89543 12 5Z" fill="black"/>
    <path d="M14 13C14 12.4477 13.5523 12 13 12H7C6.44772 12 6 12.4477 6 13V19H4V13C4 11.3431 5.34315 10 7 10H13C14.6569 10 16 11.3431 16 13V19H14V13Z" fill="black"/>
</svg>
