<svg viewBox="0 0 20 20" fill="none" xmlns="http://www.w3.org/2000/svg">
    <path d="M6.25 10.625C6.4375 15.125 8.25 18.125 10 18.125C11.75 18.125 13.5625 15.125 13.75 10.625H6.25Z" fill="white"/>
    <path d="M10 1.875C8.25 1.875 6.4375 4.875 6.25 9.375H13.75C13.5625 4.875 11.75 1.875 10 1.875Z" fill="white"/>
    <path d="M15 9.375H18.75C18.4375 5.5625 15.75 2.4375 12.1875 1.5625C13.75 2.9375 14.875 5.875 15 9.375Z" fill="white"/>
    <path d="M5 10.625H1.25C1.5 14.4375 4.1875 17.5625 7.8125 18.4375C6.25 17.0625 5.125 14.125 5 10.625Z" fill="white"/>
    <path d="M15 10.625C14.875 14.125 13.75 17.0625 12.1875 18.4375C15.75 17.5 18.4375 14.375 18.75 10.625H15Z" fill="white"/>
    <path d="M5 9.375C5.125 5.875 6.25 2.9375 7.8125 1.5625C4.25 2.4375 1.5625 5.5625 1.3125 9.375H5Z" fill="white"/>
</svg>
