<svg viewBox="0 0 24 24" fill="none" xmlns="http://www.w3.org/2000/svg">
    <path d="M8.36324 11.5209C9.46196 11.5209 10.3519 12.3449 10.3318 13.3521C10.3318 14.3592 9.46379 15.1833 8.36324 15.1833C7.28284 15.1833 6.39288 14.3592 6.39288 13.3521C6.39288 12.3449 7.26269 11.5209 8.36324 11.5209ZM15.4097 11.5209C16.5102 11.5209 17.3801 12.3449 17.3801 13.3521C17.3801 14.3592 16.5102 15.1833 15.4097 15.1833C14.3293 15.1833 13.4412 14.3592 13.4412 13.3521C13.4412 12.3449 14.3091 11.5209 15.4097 11.5209ZM17.2354 20.1513C21.3977 20.0176 23 17.2287 23 17.2287C23 11.0374 20.2862 6.01813 20.2862 6.01813C17.576 3.94339 14.994 4.00015 14.994 4.00015L14.7303 4.30779C17.9331 5.30763 19.42 6.75061 19.42 6.75061C17.6713 5.76541 15.7441 5.13794 13.7506 4.90476C12.4861 4.76194 11.2088 4.77424 9.94723 4.94139C9.83369 4.94139 9.73847 4.96153 9.62677 4.97984C8.96754 5.03844 7.36524 5.28748 5.35092 6.1921C4.65507 6.51805 4.23939 6.75061 4.23939 6.75061C4.23939 6.75061 5.80323 5.23072 9.19278 4.23088L9.00416 4.00015C9.00416 4.00015 6.42401 3.94339 3.712 6.01996C3.712 6.01996 1 11.0374 1 17.2287C1 17.2287 2.58216 20.0158 6.74447 20.1513C6.74447 20.1513 7.44032 19.287 8.00799 18.5563C5.61462 17.8239 4.71184 16.2857 4.71184 16.2857C4.71184 16.2857 4.89862 16.4212 5.23739 16.6134C5.2557 16.6317 5.27401 16.6519 5.31247 16.6702C5.36924 16.7105 5.426 16.7288 5.48277 16.7673C5.95339 17.0364 6.42401 17.247 6.85617 17.421C7.62893 17.7286 8.55186 18.0363 9.62677 18.2487C11.237 18.5643 12.8925 18.5705 14.5051 18.267C15.4443 18.0994 16.3607 17.8222 17.2354 17.4411C17.8946 17.1903 18.6289 16.824 19.4017 16.3058C19.4017 16.3058 18.4605 17.8825 15.992 18.5948C16.5578 19.3254 17.2372 20.1513 17.2372 20.1513H17.2354Z" fill="white"/>
</svg>
