<svg viewBox="0 0 24 24" fill="none" xmlns="http://www.w3.org/2000/svg">
    <path fill-rule="evenodd" clip-rule="evenodd" d="M14.4968 1.05001L2.32365 1.94907C1.34173 2.03414 1 2.67579 1 3.44505V16.7901C1 17.3892 1.21266 17.9018 1.72599 18.5867L4.58743 22.3076C5.05749 22.9068 5.48501 23.0351 6.3826 22.9926L20.5189 22.1368C21.7142 22.0517 22.0567 21.4951 22.0567 20.5543V5.54089C22.0567 5.0547 21.8646 4.91464 21.2992 4.49957C21.2666 4.47614 21.2341 4.45267 21.2016 4.42917L17.3165 1.69167C16.3764 1.00821 15.9921 0.921682 14.4968 1.05001ZM6.70233 5.29523C5.54808 5.37296 5.28628 5.39056 4.63069 4.85744L2.96384 3.53158C2.79445 3.35999 2.87951 3.14586 3.30631 3.10332L15.0087 2.24827C15.9914 2.16247 16.5032 2.50493 16.8875 2.80413L18.8946 4.25831C18.9804 4.30158 19.1938 4.55751 18.9371 4.55751L6.85193 5.28496L6.70233 5.29523ZM5.35668 20.4259V7.68074C5.35668 7.12414 5.52755 6.86748 6.03941 6.82421L19.9198 6.01169C20.3906 5.96916 20.6032 6.26835 20.6032 6.82421V19.4843C20.6032 20.0409 20.5174 20.5117 19.7489 20.5543L6.4662 21.3242C5.69768 21.3668 5.35668 21.1108 5.35668 20.4259ZM18.4685 8.3642C18.5536 8.74919 18.4685 9.13419 18.0835 9.17819L17.4433 9.30505V18.7151C16.8875 19.0143 16.3756 19.1851 15.9481 19.1851C15.2646 19.1851 15.0938 18.971 14.5819 18.3301L10.3954 11.7434V18.1159L11.7197 18.4159C11.7197 18.4159 11.7197 19.1859 10.6513 19.1859L7.70552 19.3567C7.61972 19.1851 7.70552 18.7576 8.00398 18.6725L8.77324 18.4591V10.0332L7.70552 9.94671C7.61972 9.56172 7.83312 9.00585 8.43151 8.96259L11.5921 8.74992L15.9481 15.4217V9.51918L14.8378 9.39158C14.752 8.92006 15.0938 8.57759 15.5206 8.53579L18.4685 8.3642Z" fill="white"/>
</svg>
