<svg viewBox="0 0 24 24" fill="none" xmlns="http://www.w3.org/2000/svg">
    <path fill-rule="evenodd" clip-rule="evenodd" d="M23 15.805V14.6555C23 14.5492 22.8974 14.4722 22.7965 14.5015L17.368 16.0709C17.3387 16.0782 17.313 16.0947 17.2928 16.1167C16.7114 16.7589 16.2173 17.1899 16.0864 17.3041L16.0773 17.312C15.74 17.598 15.322 17.7539 14.882 17.7539H12.9167V15.75H14.4787C14.519 15.75 14.5575 15.7353 14.5868 15.7097L14.7885 15.5245C14.8747 15.4457 14.9774 15.3503 15.1002 15.2275C15.1106 15.2171 15.1212 15.2065 15.1319 15.1958C15.1964 15.1315 15.2654 15.0628 15.333 14.9874C15.4137 14.9085 15.4925 14.8205 15.5658 14.7344C15.6887 14.6023 15.806 14.4648 15.9288 14.32C16.0169 14.2247 16.0975 14.1165 16.1763 14.0083C16.2644 13.9057 16.3505 13.7902 16.4312 13.6802C16.4612 13.6361 16.4932 13.5915 16.5258 13.5459C16.5569 13.5025 16.5887 13.4581 16.62 13.4125C16.6787 13.3245 16.7373 13.231 16.7868 13.143C16.9408 12.9047 17.071 12.6498 17.181 12.395C17.2315 12.2859 17.2719 12.1709 17.3111 12.0592C17.316 12.0452 17.3209 12.0313 17.3258 12.0174C17.3698 11.8872 17.4065 11.7644 17.434 11.6342C17.5 11.328 17.5147 11.0237 17.4853 10.7193C17.478 10.624 17.4707 10.5305 17.4487 10.4425V10.4279C17.4413 10.3655 17.4267 10.2958 17.4065 10.2317C17.3405 9.93467 17.2378 9.63767 17.1077 9.34617C17.0637 9.238 17.0124 9.12801 16.9629 9.02718C16.8455 8.80902 16.7227 8.59082 16.5833 8.38001C16.5554 8.33548 16.5245 8.29036 16.4937 8.24532C16.4699 8.21063 16.4462 8.17598 16.4238 8.14168C16.3356 8.00559 16.2364 7.87438 16.1401 7.74707C16.1184 7.7183 16.0968 7.68973 16.0755 7.66135C16.0187 7.58673 15.9565 7.51213 15.8939 7.43703C15.8595 7.39586 15.8251 7.35454 15.7913 7.31299C15.696 7.1975 15.6025 7.08751 15.5072 6.97934C15.1662 6.59433 14.8087 6.24601 14.4897 5.94901C14.431 5.89034 14.3668 5.83167 14.3008 5.77485C14.0533 5.54933 13.8278 5.35315 13.639 5.20101C13.5823 5.15736 13.5314 5.11436 13.484 5.07433C13.4518 5.04711 13.4212 5.02126 13.3915 4.99752C13.3343 4.95485 13.2846 4.91701 13.2429 4.88525C13.2165 4.86512 13.1933 4.84743 13.1733 4.83249C13.1587 4.8215 13.1422 4.81419 13.1257 4.80865L12.9167 4.75002V3.01934C12.9167 2.737 12.803 2.48401 12.6215 2.29882C12.44 2.11367 12.187 2 11.9084 2C11.351 2 10.9 2.45649 10.9 3.01934V4.18532L10.7955 4.15602L10.5113 4.07533L10.2528 4.00384C10.2521 4.00384 10.2513 4.00352 10.2504 4.00315C10.2492 4.00262 10.2476 4.00199 10.2455 4.00199H10.24L8.27833 3.47033C8.19217 3.44649 8.11883 3.54 8.16284 3.61883L8.47633 4.19817C8.49414 4.24269 8.51668 4.28722 8.53985 4.33297C8.55484 4.36258 8.5701 4.39271 8.5845 4.42368C8.63585 4.52632 8.68717 4.63449 8.73667 4.74267C8.78068 4.83799 8.82468 4.93149 8.876 5.03417C8.89758 5.08243 8.91958 5.13128 8.94189 5.18082C9.02383 5.36279 9.10999 5.55412 9.19499 5.76018C9.26833 5.93434 9.34167 6.1085 9.40583 6.29001C9.58185 6.74651 9.74866 7.23416 9.89352 7.73469C9.92956 7.8467 9.95837 7.95509 9.98757 8.06495C9.99995 8.11152 10.0124 8.15836 10.0255 8.20585L10.0457 8.29382C10.1043 8.52669 10.1557 8.75767 10.1923 8.9905C10.2217 9.14999 10.2492 9.30217 10.2638 9.45616C10.2858 9.63032 10.3078 9.80452 10.3152 9.97868C10.3298 10.1382 10.3372 10.305 10.3372 10.4645C10.3372 10.8715 10.3005 11.2638 10.2143 11.6342C10.2089 11.6541 10.2035 11.6742 10.1981 11.6945C10.174 11.7846 10.1489 11.8781 10.119 11.9679C10.0919 12.064 10.0568 12.1601 10.0204 12.2599C10.0075 12.2953 9.99443 12.3311 9.98149 12.3675C9.97908 12.374 9.97666 12.3805 9.97424 12.387C9.94728 12.4596 9.91983 12.5335 9.88617 12.6059C9.70465 13.0422 9.47917 13.4767 9.24634 13.8837C8.90534 14.4869 8.56251 15.0167 8.32233 15.3577C8.30764 15.3797 8.29331 15.4007 8.2795 15.4209C8.26231 15.446 8.24592 15.4699 8.23068 15.4933C8.15552 15.5997 8.2325 15.75 8.36266 15.75H10.9V17.7539H8.33332C7.644 17.7539 7.00599 17.3634 6.698 16.7382C6.53851 16.4247 6.47616 16.08 6.51285 15.7427C6.52198 15.6418 6.44682 15.5465 6.34418 15.5465H1.15949C1.07148 15.5465 1 15.618 1 15.706V15.8123C1 19.1197 3.67118 21.8 6.96748 21.8H16.268C18.0114 21.8 19.0013 20.2113 19.9743 18.6498C20.2455 18.2146 20.5155 17.7814 20.8 17.3853C21.3115 16.674 22.5417 16.1093 22.901 15.9553C22.9597 15.9297 23 15.871 23 15.805ZM2.38603 13.1851L2.30905 13.3061C2.2412 13.4106 2.31636 13.5499 2.4447 13.5499H7.21869C7.27186 13.5499 7.32136 13.5243 7.3507 13.4803C7.41305 13.3849 7.47172 13.2859 7.52486 13.1851C7.93738 12.4921 8.30405 11.7423 8.43788 11.1886C8.75137 9.84291 8.08221 7.6814 7.3067 5.9434C7.25538 5.82791 7.09588 5.81692 7.02804 5.92324L2.38603 13.1851Z" fill="white"/>
</svg>
