<svg viewBox="0 0 24 24" fill="none" xmlns="http://www.w3.org/2000/svg">
    <path fill-rule="evenodd" clip-rule="evenodd" d="M22.3919 3.31937C21.503 3.83296 20.5341 4.19314 19.5256 4.38479C19.0974 3.94329 18.5843 3.59303 18.0172 3.3551C17.45 3.11717 16.8406 2.9965 16.2256 3.00037C15.0463 2.98526 13.9093 3.43884 13.0643 4.26149C12.2192 5.08414 11.7353 6.20857 11.7187 7.38779C11.7202 7.72676 11.7619 8.06435 11.8429 8.39351C10.0581 8.31275 8.30939 7.8632 6.70694 7.07321C5.1045 6.28321 3.68304 5.16988 2.53214 3.80337C2.13294 4.46782 1.92167 5.22821 1.92086 6.00337C1.92225 6.73258 2.10689 7.44975 2.45781 8.08898C2.80873 8.72821 3.31467 9.269 3.92914 9.66165C3.21472 9.64077 2.51511 9.45295 1.88629 9.11322C1.88629 9.13051 1.88629 9.14936 1.88629 9.16822C1.89667 10.1933 2.26277 11.183 2.92202 11.9681C3.58126 12.7531 4.49271 13.2849 5.50057 13.4724C5.11256 13.5762 4.71267 13.629 4.311 13.6295C4.02623 13.6301 3.74206 13.6032 3.46243 13.5494C3.76366 14.4311 4.33088 15.1978 5.08596 15.7438C5.84104 16.2897 6.74683 16.5882 7.67857 16.5979C6.06824 17.8256 4.09821 18.4884 2.07329 18.4836C1.71446 18.4807 1.35611 18.4571 1 18.4129C3.0741 19.7062 5.47005 20.3901 7.91429 20.3866C9.58094 20.4225 11.2381 20.1266 12.7893 19.516C14.3405 18.9054 15.7548 17.9924 16.9498 16.8301C18.1448 15.6678 19.0968 14.2795 19.7502 12.7459C20.4037 11.2122 20.7455 9.56394 20.756 7.89694C20.756 7.70679 20.756 7.51822 20.7434 7.32965C21.6252 6.71228 22.3894 5.94221 23 5.05579C22.1745 5.41309 21.3008 5.6466 20.4071 5.74879C21.3437 5.20909 22.0498 4.34473 22.3919 3.31937Z" fill="white"/>
</svg>
