<svg viewBox="0 0 10 10" fill="none" xmlns="http://www.w3.org/2000/svg">
    <path d="M8.14283 1.07167L8.9285 1.85783L7.35667 3.429L6.571 2.64333L8.14283 1.07167ZM0 4.4445H2.22217V5.5555H0V4.4445ZM1.85767 8.9285L1.0715 8.14283L2.64333 6.571L3.429 7.35667L1.85767 8.9285ZM2.64317 3.42883L1.07133 1.85767L1.8575 1.0715L3.42883 2.64317L2.64317 3.42883ZM5.5555 10H4.4445V7.77783H5.5555V10ZM5.5555 2.22233H4.4445V0H5.5555V2.22233ZM8.14283 8.9285L6.571 7.35667L7.35667 6.571L8.9285 8.14283L8.14283 8.9285ZM10 5.5555H7.77783V4.4445H10V5.5555Z" fill="black"/>
</svg>
